<svg width="1383" height="200" viewBox="0 0 1383 200" fill="none" xmlns="http://www.w3.org/2000/svg" data-cy="pharmabox-logo">
    <g clip-path="url(#clip0_8_3)">
        <path
            d="M248.483 7.95715H11.4861C7.25707 7.95715 3.82874 11.3827 3.82874 15.6083V185.157C3.82874 189.382 7.25707 192.808 11.4861 192.808H248.483C252.712 192.808 256.14 189.382 256.14 185.157V15.6083C256.14 11.3827 252.712 7.95715 248.483 7.95715Z"
            fill="white" stroke="#231F20" stroke-width="8" stroke-miterlimit="10" />
        <path
            d="M147.664 61.0818L78.4111 130.278C66.5691 142.11 66.557 161.282 78.3841 173.099C90.2111 184.916 109.399 184.904 121.241 173.072L190.494 103.876C202.336 92.0438 202.348 72.872 190.521 61.0547C178.694 49.2374 159.506 49.2495 147.664 61.0818Z"
            fill="#EF4136" stroke="#231F20" stroke-width="8" stroke-miterlimit="10" />
        <path
            d="M69.5293 53.7873L69.5293 151.645C69.5293 168.378 83.0884 181.943 99.8144 181.943C116.54 181.943 130.099 168.378 130.099 151.645V53.7873C130.099 37.054 116.54 23.4889 99.8144 23.4889C83.0884 23.4889 69.5293 37.054 69.5293 53.7873Z"
            fill="white" stroke="#231F20" stroke-width="8" stroke-miterlimit="10" />
        <path d="M129.487 70.2372H70.0653V135.195H129.487V70.2372Z" fill="#00AEEF" stroke="#231F20" stroke-width="8"
            stroke-miterlimit="10" />
        <path
            d="M3.82874 114.996H256.14V185.157C256.14 189.365 252.695 192.808 248.483 192.808H11.4861C7.27457 192.808 3.82874 189.365 3.82874 185.157V114.996Z"
            fill="white" stroke="#231F20" stroke-width="9" stroke-miterlimit="10" />
        <path
            d="M334.399 3.90207H284.473V196.71H307.598V120.122H334.323C374.601 120.122 400.176 98.9288 400.176 62.0505C400.176 25.1721 374.677 3.90207 334.399 3.90207ZM333.021 98.0872H307.675V25.9373H333.021C359.209 25.9373 377.127 37.4904 377.127 62.0505C377.127 86.6106 359.209 98.1637 333.021 98.1637V98.0872Z"
            fill="white" />
        <path
            d="M466.183 66.1821C444.13 66.1821 432.567 79.4185 428.662 84.9273V0H405.536V196.71H428.662V109.105C428.662 109.105 439.688 87.6052 460.363 87.6052C477.44 87.6052 490.993 96.9396 490.993 118.745V196.71H514.119V114.92C514.119 83.5501 491.529 66.1821 466.183 66.1821V66.1821Z"
            fill="white" />
        <path
            d="M575.378 66.1821C547.505 66.1821 527.672 79.1125 527.672 79.1125L537.32 98.3933C537.32 98.3933 556.081 87.6817 575.378 87.6817C585.562 87.6817 607.616 91.2777 607.616 117.674V124.56C607.616 124.56 592.76 114.078 569.328 114.078C540.69 114.078 518.866 131.676 518.866 156.465C518.866 184.009 543.37 200 566.265 200C595.21 200 609.53 178.271 609.53 178.271V196.71H630.741V113.007C630.741 89.2885 612.823 66.1821 575.378 66.1821V66.1821ZM607.616 160.367C607.616 160.367 593.832 179.648 571.243 179.648C556.923 179.648 541.992 173.068 541.992 156.542C541.992 143.305 554.397 133.435 574.229 133.435C594.062 133.435 607.616 142.54 607.616 142.54V160.444V160.367Z"
            fill="white" />
        <path
            d="M717.04 69.4721C717.04 69.4721 709.076 66.1821 698.586 66.1821C674.312 66.1821 663.055 89.0589 663.055 89.0589V69.4721H641.538V196.71H664.663V109.105C664.663 109.105 673.776 87.6052 693.915 87.6052C703.563 87.6052 708.54 90.3596 708.54 90.3596L710.761 84.9273V69.3956H717.117L717.04 69.4721Z"
            fill="white" />
        <path
            d="M844.225 66.1821C816.352 66.1821 806.168 89.9005 806.168 89.9005C806.168 89.9005 798.204 66.1821 766.502 66.1821C740.62 66.1821 731.202 88.2173 731.202 88.2173V69.4721H716.04L709.684 85.0038V196.71H732.81V108.034C732.81 108.034 741.386 87.6817 760.07 87.6817C776.61 87.6817 787.33 97.8577 787.33 118.516V196.71H810.456V108.034C810.456 108.034 818.726 87.6817 837.716 87.6817C854.256 87.6817 864.977 97.8577 864.977 118.516V196.71H888.102V114.92C888.102 83.5501 870.49 66.1821 843.995 66.1821H844.225Z"
            fill="white" />
        <path d="M710.684 69.4721V85.0038L717.04 69.4721H710.684Z" fill="white" />
        <path
            d="M950.514 66.1821C922.641 66.1821 902.809 79.1125 902.809 79.1125L912.457 98.3933C912.457 98.3933 931.218 87.6817 950.514 87.6817C960.699 87.6817 982.752 91.2777 982.752 117.674V124.56C982.752 124.56 967.897 114.078 944.465 114.078C915.826 114.078 894.003 131.676 894.003 156.465C894.003 184.009 918.506 200 941.402 200C970.347 200 984.666 178.271 984.666 178.271V196.71H1005.88V113.007C1005.88 89.2885 987.959 66.1821 950.514 66.1821V66.1821ZM982.752 160.367C982.752 160.367 968.969 179.648 946.379 179.648C932.06 179.648 917.128 173.068 917.128 156.542C917.128 143.305 929.533 133.435 949.366 133.435C969.198 133.435 982.752 142.54 982.752 142.54V160.444V160.367Z"
            fill="white" />
        <path
            d="M1140.19 118.057C1131.77 99.5409 1114.69 94.6442 1112.62 94.2617C1115.38 93.7261 1134.37 82.7085 1134.37 56.5417C1134.37 24.3305 1112.01 3.90207 1072.34 3.90207H1021.65V196.71H1081.99C1113.69 196.71 1136.21 181.714 1142.79 157.307C1140.04 149.809 1138.5 141.699 1138.5 133.129C1138.5 127.927 1139.12 122.953 1140.11 118.057H1140.19ZM1044.85 25.9373H1076.25C1098 25.9373 1111.24 37.7965 1111.24 56.5417C1111.24 75.2869 1098 87.1461 1076.25 87.1461H1044.85V25.9373V25.9373ZM1082.07 174.675H1044.85V108.569H1082.07C1109.64 108.569 1121.73 123.412 1121.73 141.622C1121.73 159.832 1109.64 174.675 1082.07 174.675V174.675Z"
            fill="white" />
        <path
            d="M1204.13 66.1821C1171.81 66.1821 1146.54 88.0643 1140.11 118.057C1142.95 124.254 1144.78 131.982 1144.78 141.622C1144.78 147.207 1144.02 152.41 1142.72 157.307C1151.9 182.479 1175.18 200 1204.05 200C1241.57 200 1269.68 170.543 1269.68 133.053C1269.68 95.5624 1241.57 66.1056 1204.05 66.1056L1204.13 66.1821ZM1204.13 178.577C1178.48 178.577 1161.71 158.225 1161.71 133.129C1161.71 108.034 1178.55 87.6817 1204.13 87.6817C1229.7 87.6817 1246.55 108.034 1246.55 133.129C1246.55 158.225 1229.7 178.577 1204.13 178.577Z"
            fill="white" />
        <path
            d="M1140.19 118.057C1139.19 122.877 1138.58 127.927 1138.58 133.129C1138.58 141.699 1140.11 149.809 1142.87 157.307C1144.17 152.41 1144.94 147.207 1144.94 141.622C1144.94 131.982 1143.1 124.254 1140.27 118.057H1140.19Z"
            fill="white" />
        <path
            d="M1326.98 131.14L1369.71 69.4721H1344.14L1312.13 116.297L1279.89 69.4721H1252.86L1296.43 131.14L1250.1 196.71H1276.06L1310.44 146.901L1345.51 196.71H1372.78L1326.98 131.14Z"
            fill="white" />
    </g>
    <defs>
        <clipPath id="clip0_8_3">
            <rect width="1382.78" height="200" fill="white" />
        </clipPath>
    </defs>
</svg>